<mxfile host="app.diagrams.net" agent="Mozilla/5.0 (Windows NT 10.0; Win64; x64) AppleWebKit/537.36 (KHTML, like Gecko) Chrome/133.0.0.0 Safari/537.36" version="26.0.16">
  <diagram name="Page-1" id="fPE3otcFdZa7aKzAyU-L">
    <mxGraphModel dx="1050" dy="522" grid="1" gridSize="10" guides="1" tooltips="1" connect="1" arrows="1" fold="1" page="1" pageScale="1" pageWidth="827" pageHeight="1169" math="0" shadow="0">
      <root>
        <mxCell id="0" />
        <mxCell id="1" parent="0" />
        <mxCell id="BwyocNEEMB0kV-cA6e3j-1" value="" style="ellipse;whiteSpace=wrap;html=1;aspect=fixed;fillColor=light-dark(#000000,var(--ge-dark-color, #121212));" vertex="1" parent="1">
          <mxGeometry x="370" y="30" width="20" height="20" as="geometry" />
        </mxCell>
        <mxCell id="BwyocNEEMB0kV-cA6e3j-2" value="" style="endArrow=classic;html=1;rounded=0;entryX=0.5;entryY=0;entryDx=0;entryDy=0;exitX=0.5;exitY=1;exitDx=0;exitDy=0;" edge="1" parent="1" source="BwyocNEEMB0kV-cA6e3j-1" target="BwyocNEEMB0kV-cA6e3j-4">
          <mxGeometry width="50" height="50" relative="1" as="geometry">
            <mxPoint x="210" y="107" as="sourcePoint" />
            <mxPoint x="290" y="80" as="targetPoint" />
          </mxGeometry>
        </mxCell>
        <mxCell id="BwyocNEEMB0kV-cA6e3j-4" value="Зайти в бота та прописати /start" style="rounded=1;whiteSpace=wrap;html=1;arcSize=50;" vertex="1" parent="1">
          <mxGeometry x="320" y="80" width="120" height="50" as="geometry" />
        </mxCell>
        <mxCell id="BwyocNEEMB0kV-cA6e3j-5" value="Додати файл формату mp3 чи ogg в чат бота" style="rounded=1;whiteSpace=wrap;html=1;arcSize=50;" vertex="1" parent="1">
          <mxGeometry x="320" y="150" width="120" height="50" as="geometry" />
        </mxCell>
        <mxCell id="BwyocNEEMB0kV-cA6e3j-43" style="edgeStyle=orthogonalEdgeStyle;rounded=0;orthogonalLoop=1;jettySize=auto;html=1;exitX=0.5;exitY=1;exitDx=0;exitDy=0;entryX=0.5;entryY=0;entryDx=0;entryDy=0;" edge="1" parent="1" source="BwyocNEEMB0kV-cA6e3j-6" target="BwyocNEEMB0kV-cA6e3j-29">
          <mxGeometry relative="1" as="geometry" />
        </mxCell>
        <mxCell id="BwyocNEEMB0kV-cA6e3j-6" value="бот додає файл в базу даних&amp;nbsp;" style="rounded=1;whiteSpace=wrap;html=1;arcSize=50;" vertex="1" parent="1">
          <mxGeometry x="630" y="362.5" width="120" height="50" as="geometry" />
        </mxCell>
        <mxCell id="BwyocNEEMB0kV-cA6e3j-28" style="edgeStyle=orthogonalEdgeStyle;rounded=0;orthogonalLoop=1;jettySize=auto;html=1;exitX=0.5;exitY=1;exitDx=0;exitDy=0;entryX=0.25;entryY=0;entryDx=0;entryDy=0;" edge="1" parent="1" source="BwyocNEEMB0kV-cA6e3j-7" target="BwyocNEEMB0kV-cA6e3j-13">
          <mxGeometry relative="1" as="geometry" />
        </mxCell>
        <mxCell id="BwyocNEEMB0kV-cA6e3j-7" value="Користувач чекає&amp;nbsp;&lt;div&gt;на завершення процессу&lt;/div&gt;" style="rounded=1;whiteSpace=wrap;html=1;arcSize=50;" vertex="1" parent="1">
          <mxGeometry x="80" y="430" width="120" height="50" as="geometry" />
        </mxCell>
        <mxCell id="BwyocNEEMB0kV-cA6e3j-27" style="edgeStyle=orthogonalEdgeStyle;rounded=0;orthogonalLoop=1;jettySize=auto;html=1;exitX=0.25;exitY=1;exitDx=0;exitDy=0;entryX=0.5;entryY=0;entryDx=0;entryDy=0;" edge="1" parent="1" source="BwyocNEEMB0kV-cA6e3j-9" target="BwyocNEEMB0kV-cA6e3j-7">
          <mxGeometry relative="1" as="geometry">
            <Array as="points">
              <mxPoint x="350" y="260" />
              <mxPoint x="140" y="260" />
            </Array>
          </mxGeometry>
        </mxCell>
        <mxCell id="BwyocNEEMB0kV-cA6e3j-32" style="edgeStyle=orthogonalEdgeStyle;rounded=0;orthogonalLoop=1;jettySize=auto;html=1;exitX=0.75;exitY=1;exitDx=0;exitDy=0;entryX=0.5;entryY=0;entryDx=0;entryDy=0;" edge="1" parent="1" source="BwyocNEEMB0kV-cA6e3j-9" target="BwyocNEEMB0kV-cA6e3j-23">
          <mxGeometry relative="1" as="geometry" />
        </mxCell>
        <mxCell id="BwyocNEEMB0kV-cA6e3j-9" value="" style="rounded=0;whiteSpace=wrap;html=1;fillColor=light-dark(#000000,var(--ge-dark-color, #121212));shadow=0;" vertex="1" parent="1">
          <mxGeometry x="320" y="220" width="120" height="10" as="geometry" />
        </mxCell>
        <mxCell id="BwyocNEEMB0kV-cA6e3j-10" value="" style="endArrow=classic;html=1;rounded=0;entryX=0.5;entryY=0;entryDx=0;entryDy=0;exitX=0.5;exitY=1;exitDx=0;exitDy=0;" edge="1" parent="1" source="BwyocNEEMB0kV-cA6e3j-5" target="BwyocNEEMB0kV-cA6e3j-9">
          <mxGeometry width="50" height="50" relative="1" as="geometry">
            <mxPoint x="170" y="250" as="sourcePoint" />
            <mxPoint x="220" y="200" as="targetPoint" />
          </mxGeometry>
        </mxCell>
        <mxCell id="BwyocNEEMB0kV-cA6e3j-13" value="" style="rounded=0;whiteSpace=wrap;html=1;fillColor=light-dark(#000000,var(--ge-dark-color, #121212));shadow=0;" vertex="1" parent="1">
          <mxGeometry x="320" y="520" width="120" height="10" as="geometry" />
        </mxCell>
        <mxCell id="BwyocNEEMB0kV-cA6e3j-16" value="" style="endArrow=classic;html=1;rounded=0;entryX=0.5;entryY=0;entryDx=0;entryDy=0;exitX=0.5;exitY=1;exitDx=0;exitDy=0;" edge="1" parent="1" source="BwyocNEEMB0kV-cA6e3j-13" target="BwyocNEEMB0kV-cA6e3j-18">
          <mxGeometry width="50" height="50" relative="1" as="geometry">
            <mxPoint x="440" y="450" as="sourcePoint" />
            <mxPoint x="490" y="400" as="targetPoint" />
          </mxGeometry>
        </mxCell>
        <mxCell id="BwyocNEEMB0kV-cA6e3j-18" value="" style="ellipse;whiteSpace=wrap;html=1;aspect=fixed;" vertex="1" parent="1">
          <mxGeometry x="362.5" y="550" width="35" height="35" as="geometry" />
        </mxCell>
        <mxCell id="BwyocNEEMB0kV-cA6e3j-19" value="" style="ellipse;whiteSpace=wrap;html=1;aspect=fixed;fillColor=light-dark(#000000,var(--ge-dark-color, #121212));" vertex="1" parent="1">
          <mxGeometry x="370" y="557.5" width="20" height="20" as="geometry" />
        </mxCell>
        <mxCell id="BwyocNEEMB0kV-cA6e3j-22" value="" style="endArrow=classic;html=1;rounded=0;exitX=0.5;exitY=1;exitDx=0;exitDy=0;entryX=0.5;entryY=0;entryDx=0;entryDy=0;" edge="1" parent="1" source="BwyocNEEMB0kV-cA6e3j-4" target="BwyocNEEMB0kV-cA6e3j-5">
          <mxGeometry width="50" height="50" relative="1" as="geometry">
            <mxPoint x="350" y="250" as="sourcePoint" />
            <mxPoint x="400" y="200" as="targetPoint" />
          </mxGeometry>
        </mxCell>
        <mxCell id="BwyocNEEMB0kV-cA6e3j-42" style="edgeStyle=orthogonalEdgeStyle;rounded=0;orthogonalLoop=1;jettySize=auto;html=1;exitX=0.5;exitY=1;exitDx=0;exitDy=0;entryX=0.5;entryY=0;entryDx=0;entryDy=0;" edge="1" parent="1" source="BwyocNEEMB0kV-cA6e3j-23" target="BwyocNEEMB0kV-cA6e3j-33">
          <mxGeometry relative="1" as="geometry" />
        </mxCell>
        <mxCell id="BwyocNEEMB0kV-cA6e3j-23" value="Бот перевіряє назву файлу та розмір" style="rounded=1;whiteSpace=wrap;html=1;arcSize=50;" vertex="1" parent="1">
          <mxGeometry x="470" y="290" width="120" height="50" as="geometry" />
        </mxCell>
        <mxCell id="BwyocNEEMB0kV-cA6e3j-25" value="Повідомити Користовачу про наявніть файлу" style="rounded=1;whiteSpace=wrap;html=1;arcSize=50;" vertex="1" parent="1">
          <mxGeometry x="220" y="362.5" width="120" height="50" as="geometry" />
        </mxCell>
        <mxCell id="BwyocNEEMB0kV-cA6e3j-44" style="edgeStyle=orthogonalEdgeStyle;rounded=0;orthogonalLoop=1;jettySize=auto;html=1;exitX=0.5;exitY=1;exitDx=0;exitDy=0;entryX=0.75;entryY=0;entryDx=0;entryDy=0;" edge="1" parent="1" source="BwyocNEEMB0kV-cA6e3j-29" target="BwyocNEEMB0kV-cA6e3j-13">
          <mxGeometry relative="1" as="geometry" />
        </mxCell>
        <mxCell id="BwyocNEEMB0kV-cA6e3j-29" value="Повідомити Користовачу про додавання файлу" style="rounded=1;whiteSpace=wrap;html=1;arcSize=50;" vertex="1" parent="1">
          <mxGeometry x="630" y="430" width="120" height="50" as="geometry" />
        </mxCell>
        <mxCell id="BwyocNEEMB0kV-cA6e3j-35" style="edgeStyle=orthogonalEdgeStyle;rounded=0;orthogonalLoop=1;jettySize=auto;html=1;exitX=0;exitY=0.5;exitDx=0;exitDy=0;" edge="1" parent="1" source="BwyocNEEMB0kV-cA6e3j-33" target="BwyocNEEMB0kV-cA6e3j-25">
          <mxGeometry relative="1" as="geometry" />
        </mxCell>
        <mxCell id="BwyocNEEMB0kV-cA6e3j-36" value="[Ідентичний файл є в базі даних]" style="edgeLabel;html=1;align=center;verticalAlign=middle;resizable=0;points=[];" vertex="1" connectable="0" parent="BwyocNEEMB0kV-cA6e3j-35">
          <mxGeometry x="0.2691" y="-4" relative="1" as="geometry">
            <mxPoint x="29" y="-13" as="offset" />
          </mxGeometry>
        </mxCell>
        <mxCell id="BwyocNEEMB0kV-cA6e3j-38" style="edgeStyle=orthogonalEdgeStyle;rounded=0;orthogonalLoop=1;jettySize=auto;html=1;exitX=1;exitY=0.5;exitDx=0;exitDy=0;entryX=0;entryY=0.5;entryDx=0;entryDy=0;" edge="1" parent="1" source="BwyocNEEMB0kV-cA6e3j-33" target="BwyocNEEMB0kV-cA6e3j-6">
          <mxGeometry relative="1" as="geometry" />
        </mxCell>
        <mxCell id="BwyocNEEMB0kV-cA6e3j-41" value="[Новий файл]" style="edgeLabel;html=1;align=center;verticalAlign=middle;resizable=0;points=[];" vertex="1" connectable="0" parent="BwyocNEEMB0kV-cA6e3j-38">
          <mxGeometry x="-0.57" y="-3" relative="1" as="geometry">
            <mxPoint x="13" y="-20" as="offset" />
          </mxGeometry>
        </mxCell>
        <mxCell id="BwyocNEEMB0kV-cA6e3j-33" value="" style="rhombus;whiteSpace=wrap;html=1;" vertex="1" parent="1">
          <mxGeometry x="510" y="370" width="40" height="35" as="geometry" />
        </mxCell>
      </root>
    </mxGraphModel>
  </diagram>
</mxfile>
